inDegrees=yes
name=ik_S51_A06_T03
DataType=double
version=3
OpenSimVersion=4.3-2021-08-27-4bc7ad9
endheader
time	pelvis_tilt	pelvis_list	pelvis_rotation	pelvis_tx	pelvis_ty	pelvis_tz	hip_flexion_r	hip_adduction_r	hip_rotation_r	knee_angle_r	knee_angle_r_beta	ankle_angle_r	subtalar_angle_r	mtp_angle_r	hip_flexion_l	hip_adduction_l	hip_rotation_l	knee_angle_l	knee_angle_l_beta	ankle_angle_l	subtalar_angle_l	mtp_angle_l	lumbar_extension	lumbar_bending	lumbar_rotation	arm_flex_r	arm_add_r	arm_rot_r	elbow_flex_r	pro_sup_r	wrist_flex_r	wrist_dev_r	arm_flex_l	arm_add_l	arm_rot_l	elbow_flex_l	pro_sup_l	wrist_flex_l	wrist_dev_l
7.85999999999992	-3.894353665521944	0.5451521291431286	28.29770397088353	0	0.9399999999999999	0	41.66102950942745	-11.22625700686145	-10.71927255178331	54.11733928893085	0.9445257530107302	0	0	0	41.66102950942745	-11.22625700686145	-10.71927255178331	54.11733928893085	0.9445257530107302	0	0	0	-1.657197690921926	0.4033146819868211	-0.7005895332151483	25.544543341872	-23.6964452569453	-5.917589008046875	57.43647260003537	127.2598703222564	0	0	56.10391337874153	-25.24451375755308	-18.99273734865161	45.8060858151277	104.4051863864158	0	0
7.87999999999992	-3.895329267487057	0.5431154399418612	28.19109687749356	0	0.9399999999999999	0	41.66280096745655	-11.22398397649567	-10.71841828975178	54.11765186084116	0.9445312084197143	0	0	0	41.66280096745655	-11.22398397649567	-10.71841828975178	54.11765186084116	0.9445312084197143	0	0	0	-1.659975246011298	0.4013216398891966	-0.6431687003813894	25.55889824754659	-23.66770342791134	-5.876612736344226	57.4150626114929	127.2644777480435	0	0	56.51445128605798	-24.78399571935611	-18.73801326993488	44.90332286484133	104.8838173834698	0	0
7.89999999999992	-3.898519575651474	0.5513432133739796	28.06158579841691	0	0.9399999999999999	0	41.66439490092509	-11.22194208410879	-10.71765030572018	54.11793325397652	0.944536119656419	0	0	0	41.66439490092509	-11.22194208410879	-10.71765030572018	54.11793325397652	0.944536119656419	0	0	0	-1.659731637339265	0.4085309119694737	-0.578771341797546	25.56703810841678	-23.66724911710763	-5.79243091583273	57.43051381281784	127.2566657417176	0	0	56.85400595832667	-24.20102370838296	-18.47196898336299	43.80087675942063	105.2872610963874	0	0
7.919999999999919	-3.900769612129262	0.5497681169638076	27.99164987368863	0	0.9399999999999999	0	41.66548314832316	-11.2205498621425	-10.71712635235788	54.11812547129909	0.9445394744815773	0	0	0	41.66548314832316	-11.2205498621425	-10.71712635235788	54.11812547129909	0.9445394744815773	0	0	0	-1.663357261673672	0.4072044470738742	-0.5229761486106351	25.59683801410498	-23.66424938837503	-5.779562016980591	57.41330163384072	127.2514214523595	0	0	57.08614499248799	-23.77147658402004	-18.06990946360447	43.61765003828012	105.3727180271553	0	0
7.939999999999919	-3.893868760794097	0.5596757949000228	27.8577188797794	0	0.9399999999999999	0	41.66724829284605	-11.21829088452066	-10.71627614527232	54.11843686448098	0.9445449093178693	0	0	0	41.66724829284605	-11.21829088452066	-10.71627614527232	54.11843686448098	0.9445449093178693	0	0	0	-1.653528941394111	0.4123156181606834	-0.4844176410735176	25.59182019990685	-23.65588501261871	-5.619823934416785	57.448648080457	127.2345268145924	0	0	57.25428193068824	-23.30260687949908	-17.670267933601	42.87488674617117	105.7122365883061	0	0
7.959999999999918	-3.895404295462704	0.5700150002199688	27.79527885931851	0	0.9399999999999999	0	41.66832128650214	-11.21692199149915	-10.71576030068533	54.11862655591256	0.9445482200579132	0	0	0	41.66832128650214	-11.21692199149915	-10.71576030068533	54.11862655591256	0.9445482200579132	0	0	0	-1.650825284448987	0.4212614068066439	-0.42826498946923	25.60237425211203	-23.68061620496436	-5.604233796205999	57.42483906247793	127.2357395778542	0	0	57.4374841103313	-22.82787544602028	-17.46843654540511	42.52814835851293	105.8688185029465	0	0
7.979999999999918	-3.893246322191191	0.5783804399555035	27.7082741025794	0	0.9399999999999999	0	41.66959652100175	-11.21529593349587	-10.71514735521279	54.11885196035029	0.9445521541075003	0	0	0	41.66959652100175	-11.21529593349587	-10.71514735521279	54.11885196035029	0.9445521541075003	0	0	0	-1.645581766385547	0.4274844392763384	-0.3980064551176218	25.60977847641402	-23.65851753788522	-5.525268892588254	57.42155674077683	127.2224510017358	0	0	57.59958224622256	-22.40801977616479	-17.43542758162792	42.09895448363716	106.135184131291	0	0
7.999999999999917	-3.899163423864152	0.5764328634423997	27.62070382763264	0	0.9399999999999999	0	41.67116272367768	-11.21329834432329	-10.71439428644095	54.11912847378637	0.9445569801773858	0	0	0	41.67116272367768	-11.21329834432329	-10.71439428644095	54.11912847378637	0.9445569801773858	0	0	0	-1.652448122117399	0.4285436479572933	-0.3753118580329453	25.6565973004082	-23.63094355853064	-5.464811344055224	57.41754196635576	127.2149017185422	0	0	57.7615124465006	-22.01920656218132	-17.3841350513587	41.68900683335178	106.4592817417117	0	0
8.019999999999918	-3.904316538386061	0.5889498137873009	27.54426707863445	0	0.9399999999999999	0	41.67260871047832	-11.21145769745113	-10.71369979107825	54.11938400419859	0.944561440024418	0	0	0	41.67260871047832	-11.21145769745113	-10.71369979107825	54.11938400419859	0.944561440024418	0	0	0	-1.651934636918374	0.4418650251871985	-0.3465548070246862	25.68474779524587	-23.61591653643969	-5.444362765639694	57.37593406147695	127.255597824597	0	0	57.94300230395218	-21.66291897770057	-17.38837267739628	41.25786378094593	106.9334207316758	0	0
